HIERARCHY
ROOT Hips
{
	OFFSET 0.00000 0.00000 0.00000
	CHANNELS 6 Xposition Yposition Zposition Zrotation Yrotation Xrotation 
	JOINT LHipJoint
	{
		OFFSET 0 0 0
		CHANNELS 3 Zrotation Yrotation Xrotation
		JOINT LeftHip
		{
			OFFSET 1.56857 -1.73443 1.15205
			CHANNELS 3 Zrotation Yrotation Xrotation
			JOINT LeftKnee
			{
				OFFSET 2.39362 -6.57643 0.00000
				CHANNELS 3 Zrotation Yrotation Xrotation
				JOINT LeftAnkle
				{
					OFFSET 2.50952 -6.89485 0.00000
					CHANNELS 3 Zrotation Yrotation Xrotation
					JOINT LeftToe
					{
						OFFSET 0.17171 -0.47178 1.88682
						CHANNELS 3 Zrotation Yrotation Xrotation
						End Site
						{
							OFFSET 0.00000 -0.00000 0.98146
						}
					}
				}
			}
		}
	}
	JOINT RHipJoint
	{
		OFFSET 0 0 0
		CHANNELS 3 Zrotation Yrotation Xrotation
		JOINT RightHip
		{
			OFFSET -1.28153 -1.73443 1.15205
			CHANNELS 3 Zrotation Yrotation Xrotation
			JOINT RightKnee
			{
				OFFSET -2.26861 -6.23296 0.00000
				CHANNELS 3 Zrotation Yrotation Xrotation
				JOINT RightAnkle
				{
					OFFSET -2.54143 -6.98254 0.00000
					CHANNELS 3 Zrotation Yrotation Xrotation
					JOINT RightToe
					{
						OFFSET -0.23309 -0.64041 1.93119
						CHANNELS 3 Zrotation Yrotation Xrotation
						End Site
						{
							OFFSET -0.00000 -0.00000 1.02013
						}
					}
				}
			}
		}
	}
	JOINT lowerback
	{
		OFFSET 0 0 0
		CHANNELS 3 Zrotation Yrotation Xrotation
		JOINT Chest
		{
			OFFSET -0.07096 2.10460 -0.27878
			CHANNELS 3 Zrotation Yrotation Xrotation
			JOINT Chest2
			{
				OFFSET -0.00826 2.13662 -0.08279
				CHANNELS 3 Zrotation Yrotation Xrotation
				JOINT lowerneck
				{
					OFFSET 0 0 0
					CHANNELS 3 Zrotation Yrotation Xrotation
					JOINT Neck
					{
						OFFSET 0.03239 1.77799 0.24435
						CHANNELS 3 Zrotation Yrotation Xrotation
						JOINT Head
						{
							OFFSET 0.01026 1.74194 -0.49664
							CHANNELS 3 Zrotation Yrotation Xrotation
							End Site
							{
								OFFSET 0.00170 1.83057 -0.19653
							}
						}
					}
				}
				JOINT LeftCollar
				{
					OFFSET 0 0 0
					CHANNELS 3 Zrotation Yrotation Xrotation
					JOINT LeftShoulder
					{
						OFFSET 3.19178 1.35907 -0.31412
CHANNELS 3 Zrotation Xrotation Yrotation
						JOINT LeftElbow
						{
OFFSET 0 -4.852470 -0.000000
CHANNELS 3 Zrotation Xrotation Yrotation
							JOINT LeftWrist
							{
OFFSET 0 -3.555840 0.000000
CHANNELS 3 Zrotation Xrotation Yrotation
								JOINT lhand
								{
									OFFSET 0 0 0
CHANNELS 3 Zrotation Xrotation Yrotation
									JOINT LFingers
									{
OFFSET 0 -0.693200 0.000000
CHANNELS 3 Zrotation Xrotation Yrotation
										End Site
										{
OFFSET 0 -0.558880 0.000000
										}
									}
								}
								JOINT LThumb
								{
OFFSET 0 0.000000 0.000000
CHANNELS 3 Zrotation Xrotation Yrotation
									End Site
									{
OFFSET 0 -0.567410 0.567410
									}
								}
							}
						}
					}
				}
				JOINT RightCollar
				{
					OFFSET 0 0 0
					CHANNELS 3 Zrotation Yrotation Xrotation
					JOINT RightShoulder
					{
						OFFSET -3.28999 1.24191 -0.26899
CHANNELS 3 Zrotation Xrotation Yrotation
						JOINT RightElbow
						{
OFFSET 0 -4.644620 0.000000
CHANNELS 3 Zrotation Xrotation Yrotation
							JOINT RightWrist
							{
OFFSET 0 -3.407030 0.000000
CHANNELS 3 Zrotation Xrotation Yrotation
								JOINT rhand
								{
									OFFSET 0 0 0
CHANNELS 3 Zrotation Xrotation Yrotation
									JOINT RFingers
									{
OFFSET 0 -0.619580 0.000000
CHANNELS 3 Zrotation Xrotation Yrotation
										End Site
										{
OFFSET 0 -0.499520 0.000000
										}
									}
								}
								JOINT RThumb
								{
OFFSET 0 0.000000 0.000000
CHANNELS 3 Zrotation Xrotation Yrotation
									End Site
									{
OFFSET 0 -0.507150 0.507150
									}
								}
							}
						}
					}
				}
			}
		}
	}
}
MOTION
Frames: 6
Frame Time: 0.008333333333333333
45.948853 16.246849 12.870353 910.474835 20.005810 908.939097 0.000000 0.000000 0.000000 -6.336700 -1.456100 -30.384000 3.219500 11.042100 32.422000 0.339800 1.264900 -11.545200 0.178000 -2.717800 -7.494000 0.000000 0.000000 0.000000 27.685142 -13.575926 13.990618 -0.758246 -5.559016 15.510812 -1.590713 -9.257795 -28.737154 -2.158734 9.188372 -26.386887 7.211973 5.369047 4.929596 -2.607428 7.930426 5.848056 -6.709886 4.567248 4.726809 8.649612 3.850501 -19.441555 -10.031526 6.486835 24.500638 -4.112838 2.785932 11.876781 0.000000 0.000000 0.000000 5.478197 1.132376 5.270382 6.257240 -10.690450 0.586090 16.952318 23.519176 23.041593 0.000000 0.000000 0.000000 -7.125000 0.000000 0.000000 -7.532027 6.181235 -6.738428 0.000000 0.000000 0.000000 -9.751782 -15.135610 40.399341 -28.892093 -39.924623 -10.691424 -9.831859 1.486615 25.764586 0.000000 0.000000 0.000000 7.125000 0.000000 0.000000 21.139783 54.803356 -5.265903
46.108655 16.254937 12.194722 905.668050 20.382176 905.960888 0.000000 0.000000 0.000000 -6.336700 -1.456100 -30.384000 3.219500 11.042100 32.422000 0.339800 1.264900 -11.545200 0.178000 -2.717800 -7.494000 0.000000 0.000000 0.000000 22.004952 -11.038208 15.867975 -1.339041 -7.326195 20.685822 -1.133352 -9.415717 -25.561745 -1.564235 7.891048 -22.384297 1.734674 4.963532 5.701718 -4.196802 7.512123 6.366316 -5.419005 4.245353 4.242893 8.412644 4.043415 -19.701694 -10.500330 7.087861 24.899362 -4.156528 2.987148 12.166832 0.000000 0.000000 0.000000 5.742388 1.311929 9.055583 6.008808 -10.276874 0.540836 18.184911 23.211207 20.886730 0.000000 0.000000 0.000000 -7.125000 0.000000 0.000000 -6.616635 8.215550 -5.642064 0.000000 0.000000 0.000000 -7.291836 -13.305584 44.318089 -27.564858 -38.712406 -9.850405 -9.130724 -0.938354 24.488910 0.000000 0.000000 0.000000 7.125000 0.000000 0.000000 21.079509 53.485771 -4.557539
46.182388 16.232161 11.496680 904.157750 19.876360 904.863366 0.000000 0.000000 0.000000 -6.336700 -1.456100 -30.384000 3.219500 11.042100 32.422000 0.339800 1.264900 -11.545200 0.178000 -2.717800 -7.494000 0.000000 0.000000 0.000000 19.969673 -8.369631 14.485099 -2.569953 -9.958462 28.847191 -0.289928 -10.197485 -18.423047 -0.275876 3.160634 -8.745530 0.610233 4.594728 5.673323 -4.905391 7.028768 6.121487 -5.549814 3.982276 3.904180 8.009635 3.934242 -19.546313 -10.212799 7.313126 26.136645 -3.962495 3.137659 12.619631 0.000000 0.000000 0.000000 6.237546 2.779482 -0.352369 7.093330 -12.072120 0.751741 20.095361 9.826450 18.909069 0.000000 0.000000 0.000000 -7.125000 0.000000 0.000000 -5.260689 10.006406 -4.284643 0.000000 0.000000 0.000000 -5.019383 -9.829402 45.822301 -25.645155 -36.855622 -8.674175 -9.264282 -1.436362 26.346106 0.000000 0.000000 0.000000 7.125000 0.000000 0.000000 22.055260 55.233619 -5.747147
46.246482 16.214791 10.830027 901.907098 19.130104 903.024374 0.000000 0.000000 0.000000 -6.336700 -1.456100 -30.384000 3.219500 11.042100 32.422000 0.339800 1.264900 -11.545200 0.178000 -2.717800 -7.494000 0.000000 0.000000 0.000000 17.000213 -5.534391 12.167696 -4.332997 -12.586742 37.846861 0.323322 -11.447371 -10.070740 -0.102880 -1.932464 5.323856 -1.136009 4.353611 6.142452 -5.499633 6.741844 6.098242 -5.249210 3.820502 3.469595 7.485028 3.687360 -19.770988 -9.666742 7.120156 26.968071 -3.706783 3.084333 12.931772 0.000000 0.000000 0.000000 6.260251 1.305705 -0.435068 7.337229 -12.472936 0.802912 18.936811 8.365921 19.997356 0.000000 0.000000 0.000000 -7.125000 0.000000 0.000000 -6.079246 9.031384 -5.079042 0.000000 0.000000 0.000000 -3.407888 -6.101314 45.414345 -23.558377 -34.693063 -7.454011 -10.589348 0.552428 28.287757 0.000000 0.000000 0.000000 7.125000 0.000000 0.000000 22.015182 57.292640 -6.852229
46.311438 16.222119 10.189803 898.663908 17.827459 901.009057 0.000000 0.000000 0.000000 -6.336700 -1.456100 -30.384000 3.219500 11.042100 32.422000 0.339800 1.264900 -11.545200 0.178000 -2.717800 -7.494000 0.000000 0.000000 0.000000 12.798322 -3.797890 8.317182 -6.465638 -14.863444 46.820527 0.438674 -11.787322 -2.392092 -1.187455 -6.900866 19.427538 -4.310035 3.979953 6.030752 -5.779861 6.286527 6.358151 -3.755657 3.521492 3.487920 6.725631 3.567662 -19.365133 -9.309127 7.105067 26.785953 -3.433782 3.063974 12.725681 0.000000 0.000000 0.000000 6.062894 -0.608709 -8.422108 8.163880 -13.818036 0.990971 19.523463 0.303925 20.925536 0.000000 0.000000 0.000000 -7.125000 0.000000 0.000000 -5.765728 7.989128 -4.934147 0.000000 0.000000 0.000000 -2.974849 -2.735772 44.534343 -21.254947 -32.124132 -6.185202 -11.773119 3.472669 29.712179 0.000000 0.000000 0.000000 7.125000 0.000000 0.000000 21.836506 58.862211 -7.627724
46.357512 16.291291 9.590955 895.970494 16.418706 899.401750 0.000000 0.000000 0.000000 -6.336700 -1.456100 -30.384000 3.219500 11.042100 32.422000 0.339800 1.264900 -11.545200 0.178000 -2.717800 -7.494000 0.000000 0.000000 0.000000 9.255376 -2.382653 3.130674 -8.645110 -16.571586 54.851124 0.302407 -9.778424 -2.211056 -1.104094 -6.674635 18.755657 -6.380585 3.818482 5.956721 -6.289973 6.194287 6.532725 -3.135746 3.464291 3.595560 7.195258 3.231118 -19.120240 -9.014491 6.420996 27.078542 -3.526568 2.863045 12.723013 0.000000 0.000000 0.000000 6.318762 -4.630465 -10.677216 8.171340 -13.830090 0.992725 22.527049 -0.387358 24.378019 0.000000 0.000000 0.000000 -7.125000 0.000000 0.000000 -4.199371 3.907599 -3.914479 0.000000 0.000000 0.000000 -1.461593 0.206506 40.429674 -18.407202 -28.673628 -4.743963 -11.526700 7.877027 29.423059 0.000000 0.000000 0.000000 7.125000 0.000000 0.000000 21.875506 58.541136 -7.471767
